<svg width="837" height="215" viewBox="0 0 837 215" fill="none" xmlns="http://www.w3.org/2000/svg">
<g clip-path="url(#clip0_1908_9)">
<mask id="mask0_1908_9" style="mask-type:luminance" maskUnits="userSpaceOnUse" x="0" y="23" width="168" height="169">
<path d="M167.966 23.8889H0V191.858H167.966V23.8889Z" fill="white"/>
</mask>
<g mask="url(#mask0_1908_9)">
<path d="M3.1628 49.3019C4.07437 50.5194 5.15537 51.6004 6.37294 52.5119C9.43347 54.8047 13.2182 55.9169 17.0326 55.6445C20.847 55.3718 24.4352 53.733 27.1387 51.0281C29.8421 48.3236 31.4795 44.7346 31.7503 40.9201C32.0211 37.1056 30.9073 33.3213 28.613 30.2618C27.7045 29.045 26.627 27.964 25.413 27.0517C22.3531 24.7508 18.5654 23.6319 14.7464 23.9009C10.9274 24.1698 7.33391 25.8086 4.62676 28.5157C1.91966 31.2228 0.280916 34.8163 0.0119421 38.6353C-0.257032 42.4543 0.861845 46.242 3.1628 49.3019Z" fill="#FDAF0A"/>
<path d="M139.354 49.3022C140.266 50.518 141.347 51.5979 142.564 52.509C145.624 54.7952 149.405 55.9025 153.215 55.6279C157.025 55.3537 160.609 53.716 163.31 51.0152C166.011 48.314 167.649 44.7303 167.923 40.9204C168.197 37.1104 167.09 33.3291 164.804 30.2689C163.893 29.0522 162.813 27.9713 161.597 27.0587C158.849 25.0056 155.511 23.8962 152.08 23.8962C148.65 23.8962 145.312 25.0056 142.564 27.0587C141.347 27.9713 140.266 29.0521 139.354 30.2689C137.301 33.0169 136.191 36.3553 136.191 39.7855C136.191 43.2159 137.301 46.5542 139.354 49.3022Z" fill="#FDAF0A"/>
<path d="M18.2392 69.4594H18.1556C16.6509 69.2409 15.1226 69.2409 13.6179 69.4594C10.9882 69.8388 8.4963 70.8738 6.37177 72.4691C5.15502 73.3817 4.07417 74.4624 3.16163 75.679C1.56626 77.8038 0.531306 80.2958 0.152134 82.9253C-0.0663363 84.4299 -0.0663363 85.9583 0.152134 87.463C0.600164 90.5737 1.96076 93.4815 4.06179 95.8189C6.16281 98.1563 8.9099 99.8177 11.9555 100.594C15.001 101.369 18.2082 101.224 21.1713 100.177C24.1345 99.1291 26.7203 97.2265 28.6018 94.7093C29.8535 93.0393 30.7635 91.1389 31.2799 89.117C31.7963 87.0951 31.9089 84.991 31.6113 82.9253V82.845C31.1852 80.1494 31.398 77.3913 32.2326 74.7927C33.0672 72.1941 34.5003 69.8281 36.4165 67.8846L38.5866 65.6877L41.7969 62.4807L43.9771 60.3005C45.9195 58.3841 48.2851 56.9512 50.8834 56.1166C53.4813 55.282 56.239 55.069 58.9342 55.4956H59.0145C60.5202 55.7141 62.0497 55.7141 63.5555 55.4956H63.6357C66.3284 55.0713 69.0835 55.2846 71.6788 56.1185C74.2744 56.9523 76.6378 58.3838 78.5795 60.2971L80.7597 62.4774L83.9696 65.6843L86.1498 67.8645C88.0647 69.8087 89.4972 72.1751 90.3315 74.7734C91.1661 77.3717 91.3798 80.1293 90.955 82.825C90.9536 82.8517 90.9536 82.8785 90.955 82.9052C90.7365 84.4099 90.7365 85.9383 90.955 87.4429C91.5024 91.2236 93.3931 94.6803 96.2812 97.1808C99.1694 99.681 102.861 101.057 106.681 101.057C110.501 101.057 114.193 99.681 117.081 97.1808C119.97 94.6803 121.861 91.2236 122.408 87.4429C122.622 85.9379 122.622 84.4102 122.408 82.9052C122.028 80.2757 120.993 77.7838 119.398 75.6589C118.486 74.4423 117.405 73.3617 116.188 72.449C114.065 70.853 111.574 69.818 108.945 69.4394C107.439 69.2209 105.91 69.2209 104.404 69.4394H104.324C101.629 69.8656 98.8717 69.653 96.2738 68.8188C93.6759 67.9849 91.3103 66.5527 89.3668 64.6375L83.983 59.2674L81.8028 57.0872C79.8875 55.1441 78.455 52.7785 77.6204 50.1806C76.7857 47.5827 76.5724 44.8253 76.9979 42.13V42.0464C77.5962 37.8748 76.5137 33.6364 73.9883 30.2626C73.0756 29.0459 71.995 27.965 70.7784 27.0525C68.655 25.4571 66.1642 24.4221 63.5354 24.043C62.0297 23.8245 60.5001 23.8245 58.9944 24.043C56.3646 24.4222 53.8726 25.4571 51.7481 27.0525C50.5315 27.965 49.4505 29.0459 48.5382 30.2626C46.9425 32.3872 45.9076 34.8791 45.5286 37.5088C45.3101 39.0134 45.3101 40.5418 45.5286 42.0464C45.5271 42.0743 45.5271 42.1022 45.5286 42.13C45.9529 44.8252 45.7396 47.5825 44.905 50.1802C44.0704 52.7777 42.6382 55.1434 40.7233 57.0872L33.1963 64.6576C31.2528 66.5724 28.887 68.0046 26.2892 68.8385C23.6914 69.6727 20.9341 69.8853 18.2392 69.4594Z" fill="#FDAF0A"/>
<path d="M93.9642 49.3024C94.8757 50.5199 95.9567 51.6009 97.1741 52.5125C98.8449 53.7641 100.746 54.6741 102.768 55.1906C104.791 55.7068 106.895 55.8194 108.961 55.5221H109.042C111.737 55.0955 114.495 55.3084 117.093 56.1431C119.69 56.9777 122.056 58.411 123.999 60.3273L126.179 62.5075L129.389 65.7141L131.569 67.8943C133.484 69.8386 134.917 72.205 135.751 74.8032C136.585 77.4015 136.799 80.1592 136.374 82.8548C136.373 82.8815 136.373 82.9083 136.374 82.935C136.156 84.4397 136.156 85.9681 136.374 87.4727C136.372 87.5006 136.372 87.5285 136.374 87.5563C136.791 90.2453 136.573 92.9944 135.737 95.5837C134.902 98.1734 133.472 100.532 131.563 102.47L123.992 110.054C122.049 111.969 119.683 113.401 117.085 114.236C114.488 115.07 111.73 115.284 109.035 114.859H108.955C107.449 114.641 105.919 114.641 104.414 114.859C101.784 115.238 99.2919 116.273 97.1674 117.869C95.9508 118.781 94.8698 119.862 93.9575 121.079C92.3622 123.203 91.3269 125.695 90.9479 128.325C90.7294 129.831 90.7294 131.36 90.9479 132.866C91.4949 136.646 93.386 140.103 96.2741 142.604C99.1622 145.104 102.854 146.48 106.674 146.48C110.494 146.48 114.186 145.104 117.074 142.604C119.962 140.103 121.853 136.646 122.401 132.866C122.615 131.36 122.615 129.831 122.401 128.325C122.399 128.298 122.399 128.271 122.401 128.245C121.975 125.55 122.188 122.792 123.023 120.194C123.857 117.596 125.29 115.23 127.206 113.287L129.386 111.107L132.596 107.897L134.776 105.717C136.719 103.801 139.084 102.367 141.682 101.533C144.28 100.698 147.038 100.486 149.733 100.912H149.813C153.984 101.514 158.224 100.434 161.599 97.9111C164.973 95.3875 167.208 91.6269 167.81 87.456C168.024 85.951 168.024 84.4233 167.81 82.9183C167.431 80.2888 166.396 77.7969 164.801 75.6724C163.888 74.4554 162.807 73.3748 161.591 72.4621C159.468 70.8661 156.977 69.8311 154.348 69.4525C152.842 69.234 151.312 69.234 149.807 69.4525H149.726C147.03 69.8809 144.272 69.6706 141.672 68.8375C139.072 68.0047 136.704 66.5729 134.759 64.6577L129.383 59.2672L127.202 57.0869C125.285 55.1446 123.851 52.7793 123.014 50.1814C122.178 47.5837 121.963 44.8258 122.387 42.1298C122.385 42.1019 122.385 42.074 122.387 42.0462C122.601 40.5412 122.601 39.0135 122.387 37.5085C122.008 34.8789 120.973 32.387 119.378 30.2623C118.465 29.0456 117.384 27.9648 116.168 27.0522C114.044 25.4564 111.553 24.4213 108.925 24.0428C107.419 23.8243 105.889 23.8243 104.384 24.0428C101.754 24.4219 99.2618 25.4569 97.1373 27.0522C95.9207 27.9648 94.8397 29.0456 93.9274 30.2623C92.3321 32.3869 91.2968 34.8789 90.9178 37.5085C90.6993 39.0132 90.6993 40.5415 90.9178 42.0462C91.3061 44.6828 92.354 47.1787 93.9642 49.3024Z" fill="#FDAF0A"/>
<path d="M164.804 121.055C163.891 119.838 162.81 118.758 161.594 117.845C159.471 116.249 156.979 115.214 154.351 114.836C152.844 114.619 151.313 114.621 149.806 114.842C147.177 115.221 144.685 116.256 142.56 117.852C141.343 118.764 140.263 119.845 139.35 121.062C137.756 123.187 136.721 125.679 136.341 128.308C136.122 129.814 136.122 131.343 136.341 132.849C136.339 132.876 136.339 132.902 136.341 132.929C136.765 135.624 136.552 138.382 135.717 140.979C134.883 143.577 133.45 145.943 131.536 147.886L123.992 155.45C122.048 157.365 119.683 158.798 117.085 159.632C114.487 160.467 111.73 160.68 109.035 160.256H108.954C107.449 160.037 105.919 160.037 104.413 160.256H104.333C101.638 160.68 98.8805 160.467 96.283 159.632C93.6851 158.798 91.3195 157.365 89.376 155.45L83.9855 150.06L81.8053 147.88C79.89 145.936 78.4571 143.571 77.6229 140.973C76.7882 138.375 76.5749 135.618 77.0001 132.923V132.842C77.5991 128.67 76.5166 124.43 73.9908 121.055C73.0781 119.838 71.9975 118.758 70.7805 117.845C68.6572 116.25 66.1663 115.215 63.5379 114.836C62.0322 114.617 60.5027 114.617 58.9969 114.836C56.3671 115.215 53.8751 116.25 51.7506 117.845C50.534 118.758 49.453 119.838 48.5403 121.055C46.945 123.18 45.9101 125.672 45.5311 128.301C45.3126 129.807 45.3126 131.336 45.5311 132.842C45.8287 134.908 46.5307 136.894 47.5964 138.688C48.6622 140.482 50.071 142.048 51.7421 143.297C53.4135 144.547 55.3147 145.454 57.3366 145.968C59.3589 146.483 61.4625 146.594 63.5279 146.295H63.6082C66.3049 145.866 69.0652 146.076 71.666 146.909C74.2669 147.741 76.6359 149.174 78.582 151.09L80.7622 153.27L83.9721 156.48L86.1523 158.661C88.0676 160.604 89.4997 162.97 90.3344 165.567C91.169 168.165 91.3823 170.922 90.9575 173.618C90.9561 173.644 90.9561 173.671 90.9575 173.698C90.739 175.204 90.739 176.733 90.9575 178.239C91.4477 181.634 93.0233 184.778 95.4484 187.204C97.8738 189.629 101.019 191.204 104.413 191.694C105.919 191.908 107.448 191.908 108.954 191.694C112.348 191.203 115.492 189.627 117.917 187.202C120.342 184.777 121.918 181.633 122.41 178.239C122.624 176.733 122.624 175.204 122.41 173.698C122.408 173.671 122.408 173.644 122.41 173.618C121.981 170.921 122.191 168.162 123.023 165.562C123.855 162.961 125.286 160.593 127.202 158.647L129.382 156.467L132.592 153.257L134.759 151.09C136.702 149.171 139.07 147.735 141.67 146.898C144.271 146.062 147.032 145.848 149.729 146.275H149.81C153.98 146.876 158.218 145.796 161.593 143.274C164.967 140.751 167.203 136.992 167.807 132.822C168.021 131.316 168.021 129.787 167.807 128.281C167.426 125.659 166.394 123.175 164.804 121.055Z" fill="#FDAF0A"/>
<path d="M28.6128 166.452C27.3633 164.781 25.7967 163.372 24.0026 162.307C22.2084 161.241 20.2218 160.54 18.1565 160.242C16.6518 160.024 15.1235 160.024 13.6188 160.242C10.9896 160.623 8.498 161.658 6.37264 163.252C5.1559 164.164 4.07505 165.245 3.16251 166.462C1.10937 169.21 0 172.548 0 175.979C0 179.409 1.10937 182.747 3.16251 185.495C4.07505 186.712 5.1559 187.793 6.37264 188.705C8.498 190.299 10.9896 191.334 13.6188 191.715C15.1235 191.933 16.6518 191.933 18.1565 191.715C20.8835 191.32 23.4612 190.223 25.6365 188.532C27.8118 186.841 29.51 184.613 30.5645 182.067C31.619 179.522 31.9935 176.746 31.6513 174.011C31.3092 171.277 30.2621 168.679 28.6128 166.472V166.452Z" fill="#FDAF0A"/>
<path d="M74.0084 166.452C73.0958 165.235 72.0148 164.154 70.7982 163.242C68.6748 161.646 66.1839 160.611 63.5556 160.232C62.0495 160.014 60.5203 160.014 59.0146 160.232H58.9343C56.239 160.657 53.4817 160.444 50.8838 159.609C48.2863 158.774 45.9207 157.342 43.9768 155.427L38.5867 150.06L36.4064 147.88C34.4903 145.937 33.0572 143.572 32.2226 140.973C31.388 138.375 31.1752 135.618 31.6013 132.923V132.842C31.8198 131.337 31.8198 129.807 31.6013 128.301V128.221C31.1749 125.526 31.3876 122.768 32.2222 120.17C33.0569 117.572 34.4901 115.207 36.4064 113.264L38.5867 111.084L41.7966 107.874L43.9768 105.694C45.9196 103.777 48.2852 102.344 50.8831 101.509C53.4814 100.675 56.239 100.462 58.9343 100.888H59.0146C62.1241 101.336 65.2973 100.852 68.1319 99.4971C70.9669 98.1422 73.3362 95.9776 74.9408 93.276C76.5458 90.5748 77.3135 87.4585 77.1474 84.3211C76.9817 81.1836 75.8891 78.1654 74.0084 75.6486C73.0958 74.4319 72.0148 73.3513 70.7982 72.4386C68.6748 70.8433 66.1839 69.8084 63.5556 69.429C62.0495 69.2105 60.5203 69.2105 59.0146 69.429C56.3847 69.8084 53.8927 70.8433 51.7683 72.4386C50.5516 73.3513 49.4706 74.4319 48.558 75.6486C46.9627 77.7734 45.9277 80.2654 45.5487 82.8949C45.3302 84.3995 45.3302 85.9279 45.5487 87.4325C45.5469 87.4604 45.5469 87.4883 45.5487 87.5161C45.9757 90.2092 45.7654 92.9646 44.9352 95.5614C44.1047 98.1582 42.6769 100.525 40.7669 102.47L33.1963 110.054C31.2527 111.969 28.8869 113.401 26.2893 114.235C23.6916 115.07 20.9344 115.284 18.2392 114.859H18.1556C16.6509 114.641 15.1226 114.641 13.6179 114.859C10.9883 115.238 8.49631 116.273 6.37174 117.868C5.15503 118.781 4.07418 119.862 3.16162 121.079C1.56626 123.203 0.531306 125.695 0.152131 128.325C-0.0663354 129.831 -0.0663354 131.36 0.152131 132.866C0.452281 134.93 1.15607 136.914 2.22332 138.707C3.29057 140.498 4.70037 142.063 6.37218 143.31C8.044 144.557 9.94513 145.462 11.9669 145.974C13.9887 146.487 16.0917 146.595 18.1556 146.295H18.2392C20.9336 145.868 23.6905 146.08 26.2883 146.913C28.8861 147.745 31.2522 149.176 33.1963 151.09L35.3765 153.27L38.5867 156.48L40.7669 158.661C42.6818 160.604 44.1143 162.97 44.9489 165.567C45.7832 168.165 45.9969 170.923 45.5721 173.618C45.5703 173.645 45.5703 173.671 45.5721 173.698C45.3536 175.204 45.3536 176.733 45.5721 178.239C46.0623 181.634 47.6379 184.779 50.063 187.204C52.4884 189.629 55.6333 191.204 59.0279 191.695C60.5341 191.909 62.0628 191.909 63.569 191.695C66.2954 191.3 68.8729 190.202 71.0475 188.511C73.2225 186.819 74.9204 184.592 75.9746 182.046C77.0285 179.501 77.4027 176.724 77.0604 173.991C76.7182 171.257 75.671 168.659 74.0218 166.452H74.0084Z" fill="#FDAF0A"/>
<path d="M164.804 166.452C163.555 164.781 161.989 163.373 160.195 162.307C158.402 161.242 156.416 160.54 154.351 160.242C152.845 160.024 151.316 160.024 149.81 160.242C147.181 160.623 144.689 161.658 142.564 163.252C141.347 164.164 140.266 165.245 139.354 166.462C137.301 169.21 136.191 172.548 136.191 175.979C136.191 179.409 137.301 182.747 139.354 185.495C140.266 186.712 141.347 187.793 142.564 188.705C144.689 190.299 147.181 191.334 149.81 191.715C151.316 191.933 152.845 191.933 154.351 191.715C157.078 191.32 159.655 190.223 161.83 188.531C164.005 186.839 165.703 184.612 166.757 182.066C167.811 179.52 168.185 176.744 167.843 174.011C167.501 171.277 166.453 168.679 164.804 166.472V166.452Z" fill="#FDAF0A"/>
</g>
</g>
<path d="M254.053 24V125.24C254.053 134.379 256.305 140.85 260.811 144.653C265.317 148.456 270.878 150.361 277.495 150.367C284.119 150.367 289.683 148.463 294.189 144.653C298.695 140.843 300.947 134.372 300.947 125.24V24H343V130.061C343 146.98 337.223 161.374 325.67 173.245C313.95 185.088 297.891 191.007 277.495 191C257.099 190.993 241.088 185.061 229.461 173.204C217.82 161.367 212 146.986 212 130.061V24H254.053Z" fill="#FDAF0A"/>
<path d="M411.103 24L454.54 110.051L497.886 24H540V189H497.886V110.313L469.046 170.976H439.954L411.103 110.313V189H369V24H411.103Z" fill="#FDAF0A"/>
<path d="M682 24V63.3435H607.242V93.0422H677.157V132.396H607.242V189H565V24H682Z" fill="#FDAF0A"/>
<path d="M701 24H837V62.0776H790.215V189H748.039V62.0776H701V24Z" fill="#FDAF0A"/>
<defs>
<clipPath id="clip0_1908_9">
<rect width="602" height="215" fill="white"/>
</clipPath>
</defs>
</svg>
